<?xml version="1.0" standalone="no"?><!DOCTYPE svg PUBLIC "-//W3C//DTD SVG 1.1//EN" "http://www.w3.org/Graphics/SVG/1.1/DTD/svg11.dtd"><svg t="1588844504839" class="icon" viewBox="0 0 1024 1024" version="1.1" xmlns="http://www.w3.org/2000/svg" p-id="4053" xmlns:xlink="http://www.w3.org/1999/xlink" width="200" height="200"><defs><style type="text/css"></style></defs><path d="M512 149.333333A362.666667 362.666667 0 1 1 149.333333 512 363.093333 363.093333 0 0 1 512 149.333333M512 85.333333a426.666667 426.666667 0 1 0 426.666667 426.666667A426.666667 426.666667 0 0 0 512 85.333333z" p-id="4054" fill="#707070"></path><path d="M597.333333 426.666667v170.666666h-170.666666v-170.666666h170.666666m0-85.333334h-170.666666a85.333333 85.333333 0 0 0-85.333334 85.333334v170.666666a85.333333 85.333333 0 0 0 85.333334 85.333334h170.666666a85.333333 85.333333 0 0 0 85.333334-85.333334v-170.666666a85.333333 85.333333 0 0 0-85.333334-85.333334z" p-id="4055" fill="#707070"></path></svg>